<mxfile host="app.diagrams.net" agent="Mozilla/5.0 (Windows NT 10.0; Win64; x64) AppleWebKit/537.36 (KHTML, like Gecko) Chrome/134.0.0.0 Safari/537.36 Edg/134.0.0.0" version="26.1.1">
  <diagram name="Strona-1" id="nRU1vdELuA-C4XG8NBDl">
    <mxGraphModel dx="475" dy="262" grid="1" gridSize="10" guides="1" tooltips="1" connect="1" arrows="1" fold="1" page="1" pageScale="1" pageWidth="827" pageHeight="1169" math="0" shadow="0">
      <root>
        <mxCell id="0" />
        <mxCell id="1" parent="0" />
        <mxCell id="e8Wx1pwEWIAAjc4wzvPc-11" value="" style="rounded=1;whiteSpace=wrap;html=1;" vertex="1" parent="1">
          <mxGeometry x="160" y="240" width="370" height="120" as="geometry" />
        </mxCell>
        <mxCell id="e8Wx1pwEWIAAjc4wzvPc-3" value="" style="edgeStyle=orthogonalEdgeStyle;rounded=0;orthogonalLoop=1;jettySize=auto;html=1;" edge="1" parent="1" source="e8Wx1pwEWIAAjc4wzvPc-1" target="e8Wx1pwEWIAAjc4wzvPc-2">
          <mxGeometry relative="1" as="geometry" />
        </mxCell>
        <mxCell id="e8Wx1pwEWIAAjc4wzvPc-1" value="Data Lake" style="rounded=1;whiteSpace=wrap;html=1;" vertex="1" parent="1">
          <mxGeometry x="170" y="270" width="120" height="60" as="geometry" />
        </mxCell>
        <mxCell id="e8Wx1pwEWIAAjc4wzvPc-2" value="Data Warehouse" style="rounded=1;whiteSpace=wrap;html=1;" vertex="1" parent="1">
          <mxGeometry x="380" y="270" width="120" height="60" as="geometry" />
        </mxCell>
        <mxCell id="e8Wx1pwEWIAAjc4wzvPc-5" value="" style="endArrow=none;dashed=1;html=1;rounded=0;" edge="1" parent="1">
          <mxGeometry width="50" height="50" relative="1" as="geometry">
            <mxPoint x="300" y="310" as="sourcePoint" />
            <mxPoint x="380" y="310" as="targetPoint" />
          </mxGeometry>
        </mxCell>
        <mxCell id="e8Wx1pwEWIAAjc4wzvPc-6" value="" style="endArrow=classic;html=1;rounded=0;entryX=1.009;entryY=0.667;entryDx=0;entryDy=0;entryPerimeter=0;" edge="1" parent="1" target="e8Wx1pwEWIAAjc4wzvPc-1">
          <mxGeometry width="50" height="50" relative="1" as="geometry">
            <mxPoint x="300" y="310" as="sourcePoint" />
            <mxPoint x="370" y="340" as="targetPoint" />
          </mxGeometry>
        </mxCell>
        <mxCell id="e8Wx1pwEWIAAjc4wzvPc-7" value="" style="image;aspect=fixed;html=1;points=[];align=center;fontSize=12;image=img/lib/azure2/analytics/Power_BI_Embedded.svg;" vertex="1" parent="1">
          <mxGeometry x="427.5" y="380" width="25" height="33.33" as="geometry" />
        </mxCell>
        <mxCell id="e8Wx1pwEWIAAjc4wzvPc-8" value="" style="endArrow=classic;html=1;rounded=0;entryX=0.485;entryY=0.994;entryDx=0;entryDy=0;entryPerimeter=0;exitX=0.443;exitY=-0.028;exitDx=0;exitDy=0;exitPerimeter=0;" edge="1" parent="1" source="e8Wx1pwEWIAAjc4wzvPc-7" target="e8Wx1pwEWIAAjc4wzvPc-2">
          <mxGeometry width="50" height="50" relative="1" as="geometry">
            <mxPoint x="320" y="410" as="sourcePoint" />
            <mxPoint x="370" y="360" as="targetPoint" />
          </mxGeometry>
        </mxCell>
        <mxCell id="e8Wx1pwEWIAAjc4wzvPc-9" value="" style="endArrow=classic;html=1;rounded=0;entryX=0.5;entryY=1;entryDx=0;entryDy=0;" edge="1" parent="1">
          <mxGeometry width="50" height="50" relative="1" as="geometry">
            <mxPoint x="229.9" y="400" as="sourcePoint" />
            <mxPoint x="229.9" y="330" as="targetPoint" />
          </mxGeometry>
        </mxCell>
        <mxCell id="e8Wx1pwEWIAAjc4wzvPc-10" value="" style="endArrow=none;dashed=1;html=1;rounded=0;entryX=0.02;entryY=0.578;entryDx=0;entryDy=0;entryPerimeter=0;" edge="1" parent="1" target="e8Wx1pwEWIAAjc4wzvPc-7">
          <mxGeometry width="50" height="50" relative="1" as="geometry">
            <mxPoint x="230" y="400" as="sourcePoint" />
            <mxPoint x="280" y="350" as="targetPoint" />
          </mxGeometry>
        </mxCell>
        <mxCell id="e8Wx1pwEWIAAjc4wzvPc-12" value="Lakehouse" style="text;html=1;align=center;verticalAlign=middle;whiteSpace=wrap;rounded=0;" vertex="1" parent="1">
          <mxGeometry x="170" y="240" width="60" height="30" as="geometry" />
        </mxCell>
      </root>
    </mxGraphModel>
  </diagram>
</mxfile>
